HIERARCHY
ROOT Hips
{
	OFFSET 0.00000 0.00000 0.00000
	CHANNELS 6 Xposition Yposition Zposition Zrotation Yrotation Xrotation 
	JOINT RightUpLegDummy
	{
		OFFSET 0 0 0
		CHANNELS 3 Zrotation Yrotation Xrotation
		JOINT RightUpLeg
		{
			OFFSET -3.52197 -3.41223 0.04002
			CHANNELS 3 Zrotation Yrotation Xrotation
			JOINT RightLeg
			{
				OFFSET 0.00006 -17.42390 1.60435
				CHANNELS 3 Zrotation Yrotation Xrotation
				JOINT RightFoot
				{
					OFFSET 0.06153 -16.50078 -1.63901
					CHANNELS 3 Zrotation Yrotation Xrotation
					JOINT RightToes
					{
						OFFSET 0.00298 -1.73825 3.34613
						CHANNELS 3 Zrotation Yrotation Xrotation
						End Site
						{
							OFFSET 0.00480 -0.05416 3.85043
						}
					}
				}
			}
		}
	}
	JOINT SpineDummy
	{
		OFFSET 0 0 0
		CHANNELS 3 Zrotation Yrotation Xrotation
		JOINT Spine
		{
			OFFSET 0.00000 4.68130 0.00000
			CHANNELS 3 Zrotation Yrotation Xrotation
			JOINT Spine1
			{
				OFFSET -0.00000 10.10138 0.05002
				CHANNELS 3 Zrotation Yrotation Xrotation
				JOINT HEadDummy
				{
					OFFSET 0 0 0
					CHANNELS 3 Zrotation Yrotation Xrotation
					JOINT Head
					{
						OFFSET -0.00000 3.43865 0.00438
						CHANNELS 3 Zrotation Yrotation Xrotation
						End Site
						{
							OFFSET -0.11417 5.02924 0.98962
						}
					}
				}
				JOINT LeftShoulder1Dummy
				{
					OFFSET 0 0 0
					CHANNELS 3 Zrotation Yrotation Xrotation
					JOINT LeftShoulder1
					{
						OFFSET 3.53937 -0.14262 -0.08662
						CHANNELS 3 Zrotation Yrotation Xrotation
						JOINT LeftArm
						{
							OFFSET 4.04833 -0.00133 0.12681
							CHANNELS 3 Zrotation Yrotation Xrotation
							JOINT LeftForeArm
							{
								OFFSET 10.33880 -0.01036 -0.55515
								CHANNELS 3 Zrotation Yrotation Xrotation
								JOINT LeftHand
								{
									OFFSET 8.69677 0.07543 0.40060
									CHANNELS 3 Zrotation Yrotation Xrotation
									End Site
									{
										OFFSET 5.28377 -0.21905 0.59205
									}
								}
							}
						}
					}
				}
				JOINT RightShoulderDummy
				{
					OFFSET 0 0 0
					CHANNELS 3 Zrotation Yrotation Xrotation
					JOINT RightShoulder
					{
						OFFSET -3.53937 -0.14262 -0.08660
						CHANNELS 3 Zrotation Yrotation Xrotation
						JOINT RightArm
						{
							OFFSET -4.04833 -0.00133 0.12683
							CHANNELS 3 Zrotation Yrotation Xrotation
							JOINT RightForeArm
							{
								OFFSET -10.37987 -0.01039 -0.55511
								CHANNELS 3 Zrotation Yrotation Xrotation
								JOINT RightHand
								{
									OFFSET -8.67398 0.07538 0.40058
									CHANNELS 3 Zrotation Yrotation Xrotation
									End Site
									{
										OFFSET -5.24810 -0.21916 0.59204
									}
								}
							}
						}
					}
				}
			}
		}
	}
	JOINT LeftUpLegDummy
	{
		OFFSET 0 0 0
		CHANNELS 3 Zrotation Yrotation Xrotation
		JOINT LeftUpLeg
		{
			OFFSET 3.52197 -3.41223 0.04002
			CHANNELS 3 Zrotation Yrotation Xrotation
			JOINT LeftLeg
			{
				OFFSET -0.00012 -17.42399 1.60337
				CHANNELS 3 Zrotation Yrotation Xrotation
				JOINT LeftFoot
				{
					OFFSET -0.09972 -16.50070 -1.63802
					CHANNELS 3 Zrotation Yrotation Xrotation
					JOINT LeftToes
					{
						OFFSET -0.01575 -1.73823 3.34611
						CHANNELS 3 Zrotation Yrotation Xrotation
						End Site
						{
							OFFSET 0.03150 -0.01868 3.85031
						}
					}
				}
			}
		}
	}
}
MOTION
Frames: 14
Frame Time: 0.033333
-33.5253 38.9156 18.3468 -2.9284 -9.2064 -4.2460 0.0000 0.0000 0.0000 5.9922 2.2249 -12.9824 0.4334 -2.3638 6.5990 4.1815 -0.5732 4.8401 0.0000 -0.0000 0.0000 0.0000 0.0000 0.0000 0.5062 -1.3119 4.7296 3.2100 -1.9917 1.1796 -0.0000 0.0000 -0.0000 -3.7169 8.4892 4.3805 -0.0000 0.0000 -0.0000 -34.5980 -2.7490 2.5408 -42.3451 -12.5192 -22.6499 -7.4494 4.9097 56.1162 14.5294 -3.3015 -1.0626 -0.0000 0.0000 -0.0000 34.9188 5.2108 3.5678 36.6685 -1.1086 -20.9643 9.7268 -2.9698 20.3995 -11.2152 1.6842 -0.6693 0.0000 0.0000 0.0000 2.6604 13.9007 16.9963 -10.2782 -24.0715 18.7895 7.8533 -0.0576 -9.6883 0.0000 0.0000 -0.0000
-33.6555 38.8173 19.2371 -3.4990 -9.0373 -4.5746 0.0000 0.0000 0.0000 6.2267 1.4837 -12.7562 1.0092 -2.2471 9.8705 5.6400 -0.7188 3.4015 0.0000 -0.0000 0.0000 0.0000 0.0000 0.0000 2.4842 -0.8622 5.1155 2.2090 -1.3489 0.9438 -0.0000 0.0000 -0.0000 -3.8881 8.6133 4.7414 -0.0000 0.0000 -0.0000 -34.5017 -2.7322 2.5279 -42.3985 -12.0494 -22.4485 -7.7190 4.9515 54.7787 14.7123 -3.2477 -1.0700 -0.0000 0.0000 -0.0000 34.6912 5.1797 3.5350 36.6286 -0.7134 -21.8445 9.3592 -4.1151 20.4954 -11.1148 1.5406 -0.6506 0.0000 0.0000 0.0000 4.4616 14.7496 15.6204 -13.5919 -24.0887 25.5702 2.9386 -0.0320 -7.9725 0.0000 0.0000 -0.0000
-33.8199 38.7358 19.9938 -3.7148 -8.5453 -5.0526 0.0000 0.0000 0.0000 6.4820 0.9030 -12.6045 1.2679 -1.8501 13.3309 4.7531 -0.4893 0.3335 0.0000 -0.0000 0.0000 0.0000 0.0000 0.0000 3.1007 -0.6426 6.1020 2.0906 -1.0767 0.3907 -0.0000 0.0000 -0.0000 -3.8198 8.7273 5.1199 -0.0000 0.0000 -0.0000 -34.0517 -2.7548 2.5084 -42.8711 -11.9096 -22.0799 -8.0268 5.0034 53.0849 14.9321 -3.0755 -1.0657 -0.0000 0.0000 -0.0000 34.5005 5.1521 3.5070 36.4412 0.2313 -22.1514 9.1804 -4.7055 20.7478 -10.7406 1.3831 -0.6146 0.0000 0.0000 0.0000 5.8851 14.5699 13.0275 -17.3002 -22.9641 33.4492 -6.4563 0.4580 -4.2611 0.0000 0.0000 -0.0000
-34.0064 38.6506 20.6590 -3.5244 -7.4352 -5.4844 0.0000 0.0000 0.0000 6.4388 0.5238 -12.5884 1.0259 -2.1529 16.4375 3.1267 -0.2503 -2.4603 0.0000 -0.0000 0.0000 0.0000 0.0000 0.0000 2.5953 -0.6673 7.1501 2.5116 -1.1429 -0.2224 -0.0000 0.0000 -0.0000 -3.5341 8.7080 5.4819 -0.0000 0.0000 -0.0000 -33.5714 -2.8406 2.5120 -43.2110 -12.3967 -21.4017 -8.4303 5.0342 51.9780 14.9843 -3.0747 -1.0694 -0.0000 0.0000 -0.0000 34.4863 5.1480 3.5041 36.2396 1.1691 -21.7487 9.3027 -4.0971 20.5292 -10.7875 1.4943 -0.6272 0.0000 0.0000 0.0000 6.3816 13.0657 9.2334 -20.2344 -20.4698 41.3542 -15.8262 1.8113 1.7259 0.0000 0.0000 -0.0000
-34.1538 38.5367 21.2990 -3.3382 -6.2035 -5.7925 0.0000 0.0000 0.0000 6.2276 0.0653 -12.5376 0.6514 -2.8269 19.1532 2.7503 -0.1732 -4.7948 0.0000 -0.0000 0.0000 0.0000 0.0000 0.0000 2.3170 -0.7212 8.0733 2.6229 -1.1904 -0.7483 -0.0000 0.0000 -0.0000 -3.3012 8.5546 5.6674 -0.0000 0.0000 -0.0000 -33.4106 -2.9245 2.5348 -43.0632 -13.5717 -20.4349 -8.9055 5.0295 51.9668 14.7550 -3.3473 -1.0851 -0.0000 0.0000 -0.0000 34.5120 5.1490 3.5068 36.2104 1.9843 -20.8419 9.6490 -2.4149 19.4213 -11.5435 1.8444 -0.7044 0.0000 0.0000 0.0000 6.2241 10.9152 4.8383 -21.1143 -16.7095 48.2037 -20.2191 3.2035 6.8949 0.0000 0.0000 -0.0000
-34.2373 38.4472 21.9653 -3.4208 -5.3254 -6.1313 0.0000 0.0000 0.0000 6.1209 -0.4477 -11.9782 0.5946 -3.1688 21.1847 3.1007 -0.1424 -7.0661 0.0000 -0.0000 0.0000 0.0000 0.0000 0.0000 2.8675 -0.6627 8.9422 2.1904 -1.0325 -1.0667 -0.0000 0.0000 -0.0000 -3.3108 8.3284 5.5540 -0.0000 0.0000 -0.0000 -33.6090 -2.9439 2.5553 -42.6436 -15.1018 -19.3688 -9.4036 5.0177 52.1682 14.6341 -3.7453 -1.1235 -0.0000 0.0000 -0.0000 34.4434 5.1370 3.4959 36.2381 2.8661 -19.6614 10.0725 -0.1334 17.8567 -12.0592 2.0525 -0.7565 0.0000 0.0000 0.0000 6.0245 9.0087 0.7056 -19.2652 -12.4744 53.2467 -18.6011 3.0920 7.6178 0.0000 0.0000 -0.0000
-34.2960 38.4420 22.6743 -3.5449 -4.7769 -6.5915 0.0000 0.0000 0.0000 6.0867 -0.8895 -10.7092 0.7361 -3.1526 22.1984 3.1125 -0.0967 -9.0343 0.0000 -0.0000 0.0000 0.0000 0.0000 0.0000 3.5425 -0.4842 9.7173 1.6873 -0.7336 -1.1218 -0.0000 0.0000 -0.0000 -3.4345 8.1265 5.3427 -0.0000 0.0000 -0.0000 -33.9059 -2.9231 2.5664 -42.4553 -16.5653 -18.4093 -9.8678 5.0401 51.2754 15.1985 -4.0830 -1.2106 -0.0000 0.0000 -0.0000 34.3652 5.1259 3.4846 36.0423 3.8752 -18.3829 10.4584 2.3222 16.7052 -11.5115 1.9625 -0.7134 0.0000 0.0000 0.0000 5.8409 7.7007 -2.7956 -14.5233 -8.3237 55.9594 -13.1196 1.7888 4.2297 0.0000 0.0000 -0.0000
-34.3670 38.5031 23.4048 -3.3888 -4.3787 -7.0343 0.0000 0.0000 0.0000 5.8596 -1.2961 -9.0647 0.8108 -3.0399 22.4183 3.0718 -0.0626 -10.4404 0.0000 -0.0000 0.0000 0.0000 0.0000 0.0000 3.5922 -0.1910 10.2842 1.4843 -0.3710 -1.0653 -0.0000 0.0000 -0.0000 -3.4355 8.0536 5.4066 -0.0000 0.0000 -0.0000 -34.0381 -2.9144 2.5714 -42.8020 -17.6969 -17.5413 -10.3153 5.1069 48.8757 16.2369 -4.2622 -1.3202 -0.0000 0.0000 -0.0000 34.3584 5.1273 3.4846 35.6267 5.0133 -17.2451 10.7150 4.3876 16.3938 -10.5933 1.9328 -0.6518 0.0000 0.0000 0.0000 5.3640 6.9151 -5.8588 -8.0903 -4.5992 56.3605 -6.7854 0.6711 0.0076 0.0000 0.0000 -0.0000
-34.4392 38.5993 24.1412 -2.9862 -4.0888 -7.3179 0.0000 0.0000 0.0000 5.3791 -1.7399 -7.3143 0.8870 -2.8356 22.1277 3.3970 -0.0380 -11.4906 0.0000 -0.0000 0.0000 0.0000 0.0000 0.0000 3.1650 0.1816 10.6273 1.4521 0.0300 -1.0626 -0.0000 0.0000 -0.0000 -3.2861 8.1180 5.7937 -0.0000 0.0000 -0.0000 -33.9897 -2.9259 2.5730 -43.5456 -18.3451 -16.4771 -10.8970 5.1971 45.4311 16.6842 -4.2573 -1.3575 -0.0000 0.0000 -0.0000 34.2997 5.1206 3.4767 35.3204 6.4072 -16.3390 10.8246 5.5627 16.3942 -10.4691 2.1584 -0.6630 0.0000 0.0000 0.0000 4.5754 6.5130 -8.6692 -2.0019 -1.4115 54.8790 -1.4294 0.1173 -3.0998 0.0000 0.0000 -0.0000
-34.4897 38.7060 24.8826 -2.5875 -3.8454 -7.4554 0.0000 0.0000 0.0000 4.8749 -2.1379 -5.6016 0.9918 -2.5819 21.6155 3.5616 -0.0121 -12.4496 0.0000 -0.0000 0.0000 0.0000 0.0000 0.0000 2.7927 0.5146 10.8224 1.3046 0.4042 -1.1036 -0.0000 0.0000 -0.0000 -3.1301 8.2147 6.1868 -0.0000 0.0000 -0.0000 -33.9307 -2.9400 2.5748 -44.2582 -18.4856 -14.9656 -11.7163 5.2895 41.8058 15.9972 -4.2191 -1.2945 -0.0000 0.0000 -0.0000 34.0771 5.0875 3.4440 35.3480 8.0207 -15.6328 10.8620 6.0267 16.1371 -10.9637 2.2475 -0.7028 0.0000 0.0000 0.0000 3.7217 6.4859 -11.1146 2.7267 1.4467 51.7427 1.9684 -0.0707 -5.5185 0.0000 0.0000 -0.0000
-34.5194 38.7998 25.6386 -2.3119 -3.5088 -7.4840 0.0000 0.0000 0.0000 4.5336 -2.4085 -4.0172 0.9601 -2.5072 21.0757 3.0052 0.0002 -13.2279 0.0000 -0.0000 0.0000 0.0000 0.0000 0.0000 2.6701 0.7243 10.8668 0.9290 0.6938 -1.1229 -0.0000 0.0000 -0.0000 -3.0608 8.2832 6.3876 -0.0000 0.0000 -0.0000 -33.9804 -2.9467 2.5806 -44.6383 -18.3289 -13.2027 -12.5801 5.2843 39.2234 14.9865 -4.6081 -1.2564 -0.0000 0.0000 -0.0000 33.8318 5.0488 3.4073 35.6011 9.4427 -14.9640 10.8713 6.4861 15.6824 -11.1302 2.0673 -0.6980 0.0000 0.0000 0.0000 2.9319 7.0040 -13.1066 5.5541 3.9059 47.0856 3.2241 -0.0719 -7.2958 0.0000 0.0000 -0.0000
-34.5378 38.8917 26.4136 -2.1329 -3.0556 -7.3801 0.0000 0.0000 0.0000 4.3270 -2.5899 -2.4067 0.7937 -2.7063 20.1978 1.9605 -0.0116 -13.5901 0.0000 -0.0000 0.0000 0.0000 0.0000 0.0000 2.6771 0.8693 10.7176 0.4255 0.9408 -1.1369 -0.0000 0.0000 -0.0000 -3.0854 8.3437 6.4842 -0.0000 0.0000 -0.0000 -34.0883 -2.9458 2.5873 -44.8235 -18.1888 -11.8161 -13.1078 4.6901 38.5599 14.7242 -5.5863 -1.3518 -0.0000 0.0000 -0.0000 33.7673 5.0349 3.3963 35.8667 10.3129 -14.0383 10.8177 7.2888 15.0598 -10.9825 2.1302 -0.6939 0.0000 0.0000 0.0000 2.0797 8.3129 -14.7155 6.1647 5.4269 41.1764 3.6786 -0.0705 -7.7196 0.0000 0.0000 -0.0000
-34.5405 39.0046 27.1937 -2.0412 -2.5400 -7.1810 0.0000 0.0000 0.0000 4.1817 -2.7569 -0.5450 0.6487 -3.0744 18.6558 0.9997 -0.0306 -13.6109 0.0000 -0.0000 0.0000 0.0000 0.0000 0.0000 2.6608 1.0388 10.4305 0.0369 1.1888 -1.1062 -0.0000 0.0000 -0.0000 -3.2062 8.3256 6.5007 -0.0000 0.0000 -0.0000 -34.1129 -2.9521 2.5914 -45.2112 -18.1826 -11.3605 -13.1044 3.5245 39.1112 15.1274 -6.4436 -1.4957 -0.0000 0.0000 -0.0000 33.8452 5.0405 3.4018 36.0672 10.7345 -12.9839 10.7280 8.1291 14.2777 -11.1065 2.6170 -0.7450 0.0000 0.0000 0.0000 1.0214 10.4317 -15.9406 5.2202 5.8083 34.3024 4.3325 -0.1320 -6.7955 0.0000 0.0000 -0.0000
-34.5195 39.1263 27.9721 -2.0527 -1.8751 -7.0035 0.0000 0.0000 0.0000 4.1121 -2.8918 1.5363 0.4919 -3.6356 16.7343 0.4468 -0.0416 -13.6025 0.0000 -0.0000 0.0000 0.0000 0.0000 0.0000 2.5364 1.1931 10.0828 -0.0680 1.3623 -0.8752 -0.0000 0.0000 -0.0000 -3.3760 8.1112 6.3086 -0.0000 0.0000 -0.0000 -33.9827 -2.9898 2.5980 -45.9037 -18.1872 -11.8236 -12.7369 3.3306 39.1225 15.3562 -6.4889 -1.5251 -0.0000 0.0000 -0.0000 33.8757 5.0396 3.4075 36.2600 11.0306 -12.0434 10.6592 8.7262 13.5131 -11.2323 2.8407 -0.7735 0.0000 0.0000 0.0000 -0.2445 13.0798 -16.5954 4.0072 5.8051 26.6396 4.4980 -0.2146 -5.0740 0.0000 0.0000 -0.0000
